<?xml version="1.0" standalone="no"?>
<!DOCTYPE svg PUBLIC "-//W3C//DTD SVG 20010904//EN"
 "http://www.w3.org/TR/2001/REC-SVG-20010904/DTD/svg10.dtd">
<svg version="1.0" xmlns="http://www.w3.org/2000/svg"
 width="78.000000pt" height="135.000000pt" viewBox="0 0 78.000000 135.000000"
 preserveAspectRatio="xMidYMid meet">
<metadata>
Created by potrace 1.15, written by Peter Selinger 2001-2017
</metadata>
<g transform="translate(0.000000,135.000000) scale(0.100000,-0.100000)"
fill="#000000" stroke="none">
<path d="M269 1337 c-104 -30 -190 -104 -237 -206 -23 -48 -27 -69 -26 -146 0
-78 5 -101 32 -167 18 -42 32 -89 32 -104 0 -16 -16 -75 -36 -133 -32 -91 -36
-114 -32 -171 6 -85 42 -164 104 -230 60 -64 131 -99 221 -108 63 -7 74 -12
98 -40 32 -39 70 -42 125 -11 44 25 63 59 54 96 -7 25 -6 25 34 18 50 -8 74 4
107 53 32 47 33 91 0 122 -23 22 -24 28 -18 94 5 65 2 81 -32 181 -43 123 -43
130 10 275 23 63 27 86 23 147 -9 134 -91 253 -214 310 -66 30 -177 39 -245
20z m187 -258 c18 -11 42 -40 55 -66 25 -52 22 -83 -21 -198 -29 -78 -24 -172
15 -265 31 -75 30 -122 -6 -175 -31 -45 -72 -67 -128 -68 -85 -1 -149 55 -159
138 -3 32 3 64 24 122 38 102 38 180 0 277 -47 123 -27 197 64 244 52 27 103
24 156 -9z m279 -819 c14 -23 -50 -101 -69 -83 -10 11 -7 27 14 61 19 32 43
41 55 22z m-145 -15 c0 -23 -46 -65 -70 -65 -27 0 -25 25 5 55 27 28 65 33 65
10z m-32 -143 c28 -18 -20 -62 -67 -62 -42 0 -33 36 13 56 37 16 38 16 54 6z"/>
</g>
</svg>
