<?xml version="1.0" encoding="UTF-8"?>
<svg width="139px" height="148px" viewBox="0 0 139 148" version="1.1" xmlns="http://www.w3.org/2000/svg" xmlns:xlink="http://www.w3.org/1999/xlink">
    <!-- Generator: Sketch 47.1 (45422) - http://www.bohemiancoding.com/sketch -->
    <title>pfn_logo_compact 2</title>
    <desc>Created with Sketch.</desc>
    <defs></defs>
    <g id="Page-1" stroke="none" stroke-width="1" fill="none" fill-rule="evenodd">
        <g id="pfn_logo_compact" fill-rule="nonzero" fill="#211714">
            <path d="M109.976562,6.898438 C109.976562,10.625 106.957031,13.640625 103.234375,13.640625 C99.507812,13.640625 96.488281,10.625 96.488281,6.898438 C96.488281,3.171875 99.507812,0.152344 103.234375,0.152344 C106.957031,0.152344 109.976562,3.171875 109.976562,6.898438" id="Shape"></path>
            <path d="M54.632812,9.132812 C64.273438,9.589844 74.015625,10.890625 83.511719,13.183594 C93.023438,15.496094 102.402344,18.746094 111.347656,23.59375 C115.808594,26.03125 120.167969,28.875 124.242188,32.398438 C128.292969,35.925781 132.136719,40.15625 134.957031,45.523438 C136.355469,48.195312 137.460938,51.15625 138.066406,54.292969 C138.367188,55.863281 138.550781,57.464844 138.589844,59.070312 C138.605469,59.472656 138.601562,59.875 138.597656,60.277344 L138.582031,60.96875 L138.554688,61.386719 C138.503906,62.304688 138.421875,63.066406 138.3125,63.855469 C137.863281,67.019531 136.875,70.035156 135.542969,72.730469 C134.210938,75.433594 132.554688,77.824219 130.746094,79.941406 C127.117188,84.171875 122.933594,87.359375 118.644531,89.976562 C114.339844,92.585938 109.886719,94.625 105.375,96.296875 C96.347656,99.628906 87.105469,101.535156 77.863281,102.558594 C73.246094,103.0625 68.621094,103.335938 64.011719,103.390625 C59.398438,103.457031 54.789062,103.273438 50.273438,102.953125 C45.730469,102.644531 41.15625,102.195312 36.613281,101.445312 C32.070312,100.710938 27.605469,99.671875 23.234375,98.46875 L25.828125,97.195312 L0.183594,146.273438 L21.632812,95.210938 L22.285156,93.617188 L24.226562,93.9375 C28.589844,94.648438 32.9375,95.175781 37.28125,95.410156 C41.628906,95.65625 45.992188,95.621094 50.394531,95.453125 C54.8125,95.277344 59.152344,95.027344 63.460938,94.523438 C67.773438,94.027344 72.046875,93.335938 76.257812,92.441406 C84.660156,90.640625 92.855469,88.019531 100.300781,84.367188 C104.015625,82.542969 107.535156,80.449219 110.660156,78.082031 C113.777344,75.722656 116.503906,73.050781 118.410156,70.25 C120.335938,67.445312 121.335938,64.601562 121.363281,62.042969 C121.402344,59.457031 120.609375,57.066406 118.972656,54.640625 C117.339844,52.230469 114.863281,49.898438 111.9375,47.867188 C109.007812,45.824219 105.644531,44.0625 102.078125,42.574219 C94.925781,39.597656 87.023438,37.6875 78.996094,36.597656 C74.976562,36.050781 70.910156,35.714844 66.832031,35.570312 C64.792969,35.496094 62.753906,35.472656 60.710938,35.492188 C59.691406,35.503906 58.667969,35.527344 57.652344,35.5625 L54.546875,35.699219 L54.632812,9.132812 Z" id="Shape"></path>
            <path d="M11.914062,122.191406 C13.285156,122.289062 14.984375,122.121094 16.785156,121.691406 C20.410156,120.839844 24.410156,118.992188 28.292969,116.59375 C32.1875,114.191406 36.015625,111.234375 39.695312,107.984375 C43.378906,104.726562 46.929688,101.164062 50.351562,97.414062 C57.191406,89.90625 63.527344,81.683594 69.492188,73.140625 C75.457031,64.59375 81.054688,55.703125 86.390625,46.628906 C83.070312,56.621094 79.4375,66.542969 75.3125,76.34375 C71.175781,86.140625 66.566406,95.824219 61.078125,105.246094 C58.328125,109.949219 55.347656,114.589844 52.019531,119.109375 C48.683594,123.621094 45.007812,128.023438 40.722656,132.160156 C36.425781,136.273438 31.546875,140.191406 25.445312,143.261719 C22.390625,144.78125 19.023438,146.082031 15.203125,146.878906 C13.292969,147.265625 11.269531,147.535156 9.078125,147.578125 C7.976562,147.597656 6.839844,147.566406 5.609375,147.433594 C4.992188,147.371094 4.351562,147.285156 3.65625,147.152344 C3.304688,147.085938 2.9375,147.007812 2.53125,146.910156 C2.113281,146.800781 0.925781,146.539062 0.183594,146.273438 C0.183594,146.273438 11.234375,122.144531 11.914062,122.191406" id="Shape"></path>
        </g>
    </g>
</svg>